<?xml version="1.0"?>
<svg enable-background="new 0 0 50 50" height="100%" id="Layer_1" version="1.1" viewBox="0 0 50 50" width="100%" xml:space="preserve" xmlns="http://www.w3.org/2000/svg" xmlns:xlink="http://www.w3.org/1999/xlink">
    <path d="M10.9,20.5c0,0-3.3-1.2-5.5-5.7C4.6,13.4,3.2,12.6,2,13L2,13c-1.5,0.5-2.2,2.6-1.3,4.6  c1.8,4,5.4,10.2,11.8,12.9" fill="#DFE3E5" />
    <path d="M0.7,17.5c1.7,4,5.4,10.2,11.8,12.9L12,27.3c-6.3-2.7-9.8-8.7-11.5-12.7C0.2,15.4,0.2,16.5,0.7,17.5z" opacity="0.1" />
    <g>
        <path d="M42.1,47c-4-1-8-3-11-1S25,48,25,48s-3,0-6-2s-7,0-11,1s-7-1-3-6s5-14,5-24c0-8.3,6.7-15,15-15   c8,0,15.1,6.7,15.1,15c0,10,1,19,5,24S46.1,48,42.1,47z" fill="#DFE3E5" />
    </g>
    <g opacity="0.1">
        <path d="M42.1,47c-4-1-8-3-11-1S25,48,25,48s-3,0-6-2s-7,0-11,1c-3,0.7-5.4-0.2-4.8-2.8c0.5,0,1.2-0.1,1.8-0.2c4-1,8-3,11-1   s6,2,6,2s3.1,0,6.1-2s7,0,11,1s7-1,3-6s-5-14-5-24c0-3.3-1.1-6.4-3-8.9c3.6,2.7,6,7,6,11.9c0,10,1,19,5,24S46.1,48,42.1,47z" />
    </g>
    <ellipse cx="25" cy="27.5" fill="#515151" opacity="0.8" rx="3" ry="3.5" />
    <path d="M36.9,21.4c0,0,4.2-0.8,7.5-6.6c0.8-1.4,2.1-2.3,3.3-1.9l0.1,0c1.5,0.5,2.2,2.6,1.3,4.6  c-1.8,4-5.4,10.2-11.8,12.9" fill="#DFE3E5" />
    <path d="M49.1,17.5c-1.7,4-4.8,9.3-10.6,12.3l-0.3-2.7c6.3-2.7,9.3-8.6,11.1-12.6C49.6,15.4,49.6,16.5,49.1,17.5z" opacity="0.1" />
    <g>
        <path d="M21.4,16.1c0.7,1.1,0.7,2.7,0,3.8C20.6,21.2,19.3,22,18,22c-1.3,0-2.6-0.8-3.4-2.1c-0.7-1.1-0.7-2.7,0-3.8   c0.9-1.3,2.1-2.1,3.4-2.1C19.3,14,20.6,14.8,21.4,16.1z" fill="#FFFFFF" />
        <circle cx="18" cy="18" fill="#515151" opacity="0.8" r="2" />
        <path d="M35.4,16.1c0.7,1.1,0.7,2.7,0,3.8C34.6,21.2,33.3,22,32,22c-1.3,0-2.6-0.8-3.4-2.1c-0.7-1.1-0.7-2.7,0-3.8   c0.9-1.3,2.1-2.1,3.4-2.1C33.3,14,34.6,14.8,35.4,16.1z" fill="#FFFFFF" />
        <circle cx="32" cy="18" fill="#515151" opacity="0.8" r="2" />
    </g>
</svg>