<?xml version="1.0"?>

<svg width="28px" height="18px" viewBox="0 0 28 20" preserveAspectRatio="xMinYMid meet" aria-hidden="true"
    xmlns="http://www.w3.org/2000/svg">
    <clipPath class="cut-off-1" fill="white">
        <rect x="14" y="0" width="10" height="20" />
    </clipPath>
    <clipPath class="cut-off-2" fill="white">
        <rect x="4" y="0" width="11" height="20" />
    </clipPath>
    <path class="rect-fill-display" d="M14 0 H 14 V 20 H 14 Z" fill="white" />
    <circle class="circle-1" cx="14" cy="10" r="10" fill="white" clip-path="url(#cut-off-2)"
        style="transform:translateX(0px)" />
    <circle class="circle-2" cx="14" cy="10" r="10" fill="white" clip-path="url(#cut-off-1)"
        style="transform:translateX(0px)" />

    <svg viewBox="0 0 20 20" fill="none" style="background-color:red;">
        <path class="display-rect-1" fill="rgba(114, 118, 125, 1)" 
            d="M5.13231 6.72963L6.7233 5.13864L14.855 13.2704L13.264 14.8614L5.13231 6.72963Z" />
        <path class="display-rect-2" fill="rgba(114, 118, 125, 1)"
            d="M13.2704 5.13864L14.8614 6.72963L6.72963 14.8614L5.13864 13.2704L13.2704 5.13864Z" />
        <path class="cross-rect-1" d="M5.13231 6.72963L6.7233 5.13864L14.855 13.2704L13.264 14.8614L5.13231 6.72963Z" />
        <path class="cross-rect-2" d="M13.2704 5.13864L14.8614 6.72963L6.72963 14.8614L5.13864 13.2704L13.2704 5.13864Z" />
        <path class="tick-rect-1" d="M7.89561 14.8538L6.30462 13.2629L14.3099 5.25755L15.9009 6.84854L7.89561 14.8538Z" />
        <path class="tick-rect-2" d="M4.08643 11.0903L5.67742 9.49929L9.4485 13.2704L7.85751 14.8614L4.08643 11.0903Z" />
    </svg>
</svg>